<svg xmlns="http://www.w3.org/2000/svg" viewBox="0 0 212.09 208.79"><defs><style>.cls-1{fill:#2b53a5;}.cls-2{fill:#f58120;}.cls-3{fill:none;stroke:#f58120;stroke-width:2px;}.cls-3,.cls-4{stroke-miterlimit:10;}.cls-4{fill:#010101;stroke:#010101;}</style></defs><g id="Layer_9" data-name="Layer 9"><path class="cls-1" d="M171.44,80.85c-25.23,0-45.69,19.88-45.69,44.4a43.15,43.15,0,0,0,3.51,17.08h0a44.94,44.94,0,0,0,2.45,4.85l39.73,78.63,39.73-78.63a43.24,43.24,0,0,0,6-21.93C217.12,100.73,196.67,80.85,171.44,80.85ZM151,165.94s18.5,12.78,41.25,0C192.29,165.94,171.79,181.75,151,165.94Zm20.4-2.52c-21.25,0-38.54-17-38.54-37.84s17.29-37.84,38.54-37.84,38.54,17,38.54,37.84S192.69,163.42,171.44,163.42Z" transform="translate(-68.67 -65.18)"/><path class="cls-1" d="M171.51,121.68a9.5,9.5,0,1,0,10,9.49A9.76,9.76,0,0,0,171.51,121.68Zm0,15.28a5.8,5.8,0,1,1,6.13-5.79A6,6,0,0,1,171.51,137Z" transform="translate(-68.67 -65.18)"/><path class="cls-1" d="M171.44,92.79c-18.36,0-33.31,14.71-33.31,32.79s15,32.79,33.31,32.79,33.3-14.71,33.3-32.79S189.8,92.79,171.44,92.79Zm20.19,50.49h-3.42a2.23,2.23,0,0,1-4.45,0H159.27a2.23,2.23,0,0,1-4.45,0H152a21.28,21.28,0,0,1-.48-4.48,20.92,20.92,0,0,1,9-17.27,2.74,2.74,0,0,1-.08-.64V117.2a3.07,3.07,0,0,1,6.13,0v1.51a19.76,19.76,0,0,1,10.57,0V117.2a3.06,3.06,0,0,1,6.12,0v3.69a2.74,2.74,0,0,1-.08.64,20.93,20.93,0,0,1,9,17.27A21.28,21.28,0,0,1,191.63,143.28Zm6-30.55c3,4,0,10,0,10a35.84,35.84,0,0,1-13.2-3.17l.69-4.74a31.92,31.92,0,0,0-26.41-.52l.7,4.74c-3,2.63-13.9,3.16-13.9,3.16a7.82,7.82,0,0,1-1.39-9.48c6.25-6.15,26.41-7.38,26.41-7.38C195.57,106.4,197.65,112.73,197.65,112.73Z" transform="translate(-68.67 -65.18)"/></g><g id="Layer_7" data-name="Layer 7"><path class="cls-2" d="M78.59,259.19a11.3,11.3,0,0,1-5.23-1.14,8,8,0,0,1-3.46-3.49,12.7,12.7,0,0,1-1.23-5.94q0-5.2,2.62-7.89a9.76,9.76,0,0,1,7.3-2.68,11.46,11.46,0,0,1,5.26,1.14,8,8,0,0,1,3.45,3.46,12.6,12.6,0,0,1,1.22,5.94q0,5.24-2.6,7.92A9.78,9.78,0,0,1,78.59,259.19Zm0-4.05a5.16,5.16,0,0,0,2.64-.64,4,4,0,0,0,1.64-2.09,13.15,13.15,0,0,0,0-7.66,3.86,3.86,0,0,0-1.64-2.05,5.16,5.16,0,0,0-2.64-.63,5,5,0,0,0-2.61.64,4,4,0,0,0-1.63,2.07,10.75,10.75,0,0,0-.57,3.87,10.46,10.46,0,0,0,.57,3.82,3.83,3.83,0,0,0,1.63,2A5,5,0,0,0,78.59,255.14Z" transform="translate(-68.67 -65.18)"/><path class="cls-2" d="M91.84,244.66a11.13,11.13,0,0,1,1.53-.62,18.56,18.56,0,0,1,2.07-.57c.75-.16,1.5-.29,2.27-.39a16.32,16.32,0,0,1,2.11-.16,10.3,10.3,0,0,1,3.54.54,4.32,4.32,0,0,1,2.23,1.72,5.82,5.82,0,0,1,.78,3.23v10.35h-4.54v-9.44a3.12,3.12,0,0,0-.17-1.07,2.12,2.12,0,0,0-.5-.83,2.16,2.16,0,0,0-.91-.55,4.41,4.41,0,0,0-1.4-.2,6,6,0,0,0-1.4.17,5.12,5.12,0,0,0-1.07.35v11.57H91.84Z" transform="translate(-68.67 -65.18)"/><path class="cls-2" d="M184.61,259.19a23.54,23.54,0,0,1-2.8-.15,16.42,16.42,0,0,1-2.32-.46,13,13,0,0,1-2.07-.79V253.1a9.79,9.79,0,0,0,3.17,1.7,10.59,10.59,0,0,0,3.35.58,3.67,3.67,0,0,0,2.14-.53,1.87,1.87,0,0,0,.75-1.63,1.59,1.59,0,0,0-.68-1.33,6.86,6.86,0,0,0-1.82-.88l-2.52-.87a10.73,10.73,0,0,1-1.74-.7,5.67,5.67,0,0,1-1.52-1.08,4.73,4.73,0,0,1-1.07-1.6,6.05,6.05,0,0,1-.4-2.31,6.62,6.62,0,0,1,.46-2.41A5.86,5.86,0,0,1,179,240a6.84,6.84,0,0,1,2.45-1.45,10.52,10.52,0,0,1,3.5-.53,14.49,14.49,0,0,1,2.21.15,13.35,13.35,0,0,1,1.84.44,15,15,0,0,1,1.8.75v4.75a12.71,12.71,0,0,0-1.57-1.08,11.9,11.9,0,0,0-1.81-.84,6.54,6.54,0,0,0-2-.36,5.63,5.63,0,0,0-1.68.18,2.38,2.38,0,0,0-1.18.69,1.68,1.68,0,0,0-.43,1.2,1.74,1.74,0,0,0,.52,1.34,4.1,4.1,0,0,0,1.43.81c.61.21,1.29.44,2,.68a19.86,19.86,0,0,1,2.3.81,6.89,6.89,0,0,1,1.84,1.11,4.61,4.61,0,0,1,1.22,1.64,5.94,5.94,0,0,1,.43,2.35,6.61,6.61,0,0,1-.86,3.33,6.07,6.07,0,0,1-2.46,2.38A8.28,8.28,0,0,1,184.61,259.19Z" transform="translate(-68.67 -65.18)"/><path class="cls-2" d="M198.56,264.73a7.48,7.48,0,0,1-1.5-.15,5.4,5.4,0,0,1-1.25-.4V260.5a5.39,5.39,0,0,0,.92.26,5.06,5.06,0,0,0,.88.07,2.42,2.42,0,0,0,1.33-.35,2.59,2.59,0,0,0,.93-1.19,9.21,9.21,0,0,0,.57-2.26l.1,2.58-6.61-16.26h5.2l3.51,10.81h-.46l3.47-10.81h4.87L204.46,259a13.51,13.51,0,0,1-1.78,3.38,6.27,6.27,0,0,1-2,1.79A4.45,4.45,0,0,1,198.56,264.73Z" transform="translate(-68.67 -65.18)"/><path class="cls-2" d="M217.07,259.22a10.15,10.15,0,0,1-2.82-.35,21,21,0,0,1-2.2-.78v-4a16.32,16.32,0,0,0,1.43.87,8.91,8.91,0,0,0,1.75.72,7.41,7.41,0,0,0,2,.27,2.39,2.39,0,0,0,1.54-.38,1.15,1.15,0,0,0,.44-.93,1,1,0,0,0-.45-.84,4.12,4.12,0,0,0-1.19-.53c-.49-.14-1-.27-1.55-.4a7,7,0,0,1-1.47-.47,4.36,4.36,0,0,1-1.3-.87,3.87,3.87,0,0,1-.93-1.35,4.82,4.82,0,0,1-.35-2,4.92,4.92,0,0,1,.57-2.48,4.78,4.78,0,0,1,1.53-1.6,6.83,6.83,0,0,1,2-.87,8.3,8.3,0,0,1,2.13-.22,11.26,11.26,0,0,1,3,.41,8.85,8.85,0,0,1,2,.9v3.56c-.69-.39-1.37-.75-2.05-1.08a5.15,5.15,0,0,0-2.33-.5,3.11,3.11,0,0,0-1.71.36,1.14,1.14,0,0,0-.51,1,1.18,1.18,0,0,0,.35.91,2.48,2.48,0,0,0,.92.53c.39.13.82.26,1.28.38s1,.27,1.57.44a6.36,6.36,0,0,1,1.53.74,3.43,3.43,0,0,1,1.15,1.31,4.62,4.62,0,0,1,.44,2.2,4.45,4.45,0,0,1-1,3,5.42,5.42,0,0,1-2.51,1.59A11.52,11.52,0,0,1,217.07,259.22Z" transform="translate(-68.67 -65.18)"/><path class="cls-2" d="M233.49,259.37a5.55,5.55,0,0,1-4-1.26,4.73,4.73,0,0,1-1.31-3.58v-7.71h-2.26v-3.47h2.26v-4.23h4.75v4.23h3.38v3.47h-3.38V254a1.69,1.69,0,0,0,.34,1.17,1.39,1.39,0,0,0,1.12.38,3.32,3.32,0,0,0,1-.18,3,3,0,0,0,.91-.46v3.9a5,5,0,0,1-1.39.47A7.24,7.24,0,0,1,233.49,259.37Z" transform="translate(-68.67 -65.18)"/><path class="cls-2" d="M246.74,259.22a8.5,8.5,0,0,1-4.1-1,6.77,6.77,0,0,1-2.77-2.74,8.64,8.64,0,0,1-1-4.25,9,9,0,0,1,2-6.23,7.32,7.32,0,0,1,5.71-2.21,7.08,7.08,0,0,1,4.13,1.1,6.33,6.33,0,0,1,2.3,3.2,15.1,15.1,0,0,1,.7,5.11H242l-.48-2.89H250l-.67,1.43a6.7,6.7,0,0,0-.7-3.47,2.43,2.43,0,0,0-2.19-1,2.9,2.9,0,0,0-1.54.42,2.75,2.75,0,0,0-1.06,1.42,7.68,7.68,0,0,0-.38,2.72,4.92,4.92,0,0,0,1.05,3.38,4.24,4.24,0,0,0,3.36,1.19,6.91,6.91,0,0,0,1.69-.2,13.18,13.18,0,0,0,1.57-.47c.49-.18.9-.34,1.25-.49v3.9a13.31,13.31,0,0,1-2.45.75A15.5,15.5,0,0,1,246.74,259.22Z" transform="translate(-68.67 -65.18)"/><path class="cls-2" d="M271.19,248.41v10.35h-4.54v-9.44a3.38,3.38,0,0,0-.16-1.07,2.27,2.27,0,0,0-.51-.83,2.16,2.16,0,0,0-.91-.55,4.41,4.41,0,0,0-1.4-.2,4.87,4.87,0,0,0-1.3.17,6,6,0,0,0-1,.35v11.57h-4.53v-14.1a10.44,10.44,0,0,1,1.52-.62,19.18,19.18,0,0,1,2.07-.57c.75-.16,1.51-.29,2.27-.39a16.47,16.47,0,0,1,2.12-.16,9.78,9.78,0,0,1,3.48.54,4.06,4.06,0,0,1,2.14,1.72A6.31,6.31,0,0,1,271.19,248.41Zm-4.66-2.71a9.66,9.66,0,0,1,2.29-1.45,14.54,14.54,0,0,1,2.83-1,12.35,12.35,0,0,1,2.77-.35,9.88,9.88,0,0,1,3.49.54,4.07,4.07,0,0,1,2.13,1.72,6.21,6.21,0,0,1,.71,3.23v10.35h-4.53v-9.44a3.38,3.38,0,0,0-.17-1.07,2.25,2.25,0,0,0-.5-.83,2.2,2.2,0,0,0-.92-.55,4.37,4.37,0,0,0-1.4-.2,4.06,4.06,0,0,0-1.29.2,2.88,2.88,0,0,0-1,.5Z" transform="translate(-68.67 -65.18)"/><path class="cls-3" d="M119.79,242.43s8.11-15,26.92-10.09" transform="translate(-68.67 -65.18)"/><path class="cls-3" d="M125,243.26s4.89-10.6,18.72-6.86" transform="translate(-68.67 -65.18)"/><path class="cls-3" d="M129.56,244s2.29-5.82,11.33-4.06" transform="translate(-68.67 -65.18)"/><path class="cls-4" d="M125.62,253.16a8.48,8.48,0,0,1-4.42,1.41,7.82,7.82,0,1,1-1.11-15.6l.39-4.27c-6.9.44-12.23,6-12,12.53s6.21,11.81,13.26,11.52a13.28,13.28,0,0,0,7-2.31Z" transform="translate(-68.67 -65.18)"/><rect class="cls-4" x="82.19" y="169.52" width="4.06" height="23.24"/><rect class="cls-4" x="89.65" y="169.52" width="4.06" height="23.24"/><rect class="cls-4" x="75.03" y="176.61" width="3.83" height="16.15"/><path class="cls-4" d="M137.93,241.22a8.64,8.64,0,1,0,8.1,8.62A8.38,8.38,0,0,0,137.93,241.22Zm.9,13.47a5,5,0,1,1,4.83-5A4.9,4.9,0,0,1,138.83,254.69Z" transform="translate(-68.67 -65.18)"/><circle class="cls-2" cx="70.34" cy="185.15" r="2.13"/><text x="-68.67" y="-65.18"/><text x="-68.67" y="-65.18"/></g></svg>